<?xml version="1.0" standalone="no"?>
<!DOCTYPE svg PUBLIC "-//W3C//DTD SVG 1.1//EN" "http://www.w3.org/Graphics/SVG/1.1/DTD/svg11.dtd" >
<svg xmlns="http://www.w3.org/2000/svg">
<metadata>
This is a custom SVG font generated by IcoMoon.
<iconset grid="16"></iconset>
</metadata>
<defs>
<font id="dogwalks" horiz-adv-x="512" >
<font-face units-per-em="512" ascent="480" descent="-32" />
<missing-glyph horiz-adv-x="512" />
<glyph class="hidden" unicode="&#xf000;" d="M0,480L 512 -32L0 -32 z" horiz-adv-x="0" />
<glyph unicode="&#xe000;" d="M 344.048,307.467L -5.573,476.853c-4.512,2.181-6.405,7.611-4.197,12.133c 2.187,4.512, 7.616,6.411, 12.133,4.203
			L 362.437,318.709L 344.048,307.467zM 412.357,211.237l-62.181,87.579c-14.293,0.053-158.789,0.411-309.691,0.411c-68.789,0-106.48,57.845-106.48,57.845
		s 51.477-97.883, 51.477-151.312C -14.512,88.219, -65.995-48.021, -65.995-48.021s 55.477,0, 78.843,0c 31.013,97.739, 38.885,175.371, 171.093,174.693
		C 304.267,126.059, 297.771,26.187, 298.859-48.021c 28.725,0, 69.147,0, 69.147,0s-1.504,32.533-1.504,89.872c0,124.373, 42.197,165.227, 42.197,165.227
		S 410.085,208.715, 412.357,211.237zM 482.315,387.408c-16.661,23.968-41.355,71.152-41.355,71.152s 2.683-94.107-31.509-120.101
		c-12.229-9.301-28.592-20.336-40.715-28.416l 58.917-83.093c 20.224,19.504, 54.853,46.533, 85.536,47.584c 60.485,2.107, 89.456,0, 89.456,0L 602.667,359.099 
		C 602.667,359.099, 506.432,352.741, 482.315,387.408z" horiz-adv-x="533.333"  />
<glyph unicode="&#xe001;" d="M 502.4,375.563c-11.056,26.683-24.4,77.36-24.4,77.36s-18.965-81.947-62.016-115.221
	c-14.101-10.901-33.387-22.288-45.312-28.992c-9.403,0.021-154.933,0.411-306.976,0.411c-43.845,0-95.2,34.309-95.2,34.309
	s 43.504-56.091, 40.816-126.731c0-116.187-89.419-191.131-89.419-191.131s 52.885-14.549, 75.157-20.688c 81.387,102.101, 115.045,130.203, 210.501,133.653
	c 139.109,5.029, 178.203-62.224, 246.171-139.136c 29.312,17.397, 52.507,34.416, 52.507,34.416s-38.896,53.845-69.851,103.211
	c-21.771,34.725-14.629,66.053-6.645,77.637c 6.149,8.907, 0.027-0.027, 0.027-0.027s 36.475,53.781, 87.781,43.888
	c 58.736-11.333, 78.128-17.051, 78.128-17.051l 17.835,81.68C 611.52,323.083, 518.379,337.003, 502.4,375.563z" horiz-adv-x="533.333"  />
<glyph unicode="&#xe002;" d="M 404.427,150.784c 20.832-31.893, 41.707-60.923, 59.381-91.787
		c 16.309-28.496, 12-55.712-7.835-77.552c-18.395-20.24-49.563-27.227-77.259-17.323c-40.357,14.427-55.525,59.269-31.749,99.653
		C 364.176,93.024, 384.304,120.544, 404.427,150.784zM 453.856,176.176c-35.483,0-69.227,0-102.661,0
		c-7.013,41.067-7.013,41.067-49.477,41.067c-72.496,0-144.987,0-217.477,0c-9.408,0-18.816,0-30,0c0,36.667,0,70.299,0,107.504
		c 38.901,0, 77.664,0, 115.477,0c 12.539,53.141, 12.533,51.696, 77.957,51.488c 37.483-0.123, 27.664-27.733, 32.496-50.779
		c 16.635,0, 32.987,0.048, 49.339-0.011C 416.811,325.163, 467.552,265.077, 453.856,176.176zM 258.864,436.869c-2.8-14.944-4.379-23.307-6.181-32.965
		c-17.989,0-35.184,0-54.069,0c-1.461,8.539-2.859,16.805-5.307,31.221c-14.395-2.981-29.557-3.925-42.869-9.408
		c-17.675-7.253-34.859-8.096-43.781,8.576c-5.835,10.917-6.315,29.163-1.168,40.469c 7.92,17.397, 26.277,18.907, 43.136,10.789
		c 20.869-10.064, 39.168-14.021, 60.101,2.992c 7.397,6.021, 28.645,4.949, 36.523-1.488c 19.504-15.973, 36.331-10.773, 55.461-2.645
		c 26.587,11.301, 48.587,0.688, 51.712-24.043c 3.525-27.776-20.347-45.627-47.157-36.123C 291.056,429.285, 276.128,432.261, 258.864,436.869z" horiz-adv-x="533.333"  />
<glyph unicode="&#xe003;" d="M 248.112,206.117c-24.155,42.192-52.677,81.845-81.136,125.403
		c-27.483-41.301-54.997-78.912-78.512-118.869c-32.485-55.189-11.776-116.448, 43.387-136.176c 37.856-13.547, 80.427-4, 105.568,23.664
		C 264.517,130.016, 270.416,167.195, 248.112,206.117zM 412.885,262.107c-18.971,27.397-57.419,59.867-62.699,93.632
		c-2.715,17.328, 2.165,33.408, 11.733,47.803c 8.672,13.019, 19.109,26.421, 26.091,40.699c 11.509,23.525, 0.32,36.475-18.299,39.44
		c-16.208,2.576-50.005-13.941-70.597-25.691c-21.669-12.379-43.12-29.504-58.811-49.051c-7.685-9.557-14.272-21.616-17.243-33.6
		c-18.779-75.68, 74.208-145.349, 74.485-211.259c 0.144-34.037-15.328-66.043-39.296-89.691c-6.96-6.864-17.568-14.821-25.269-20.816
		c 34.299,12.395, 51.381-2.251, 50.528-28.373c 13.963,3.819, 28.059,5.051, 41.029-2.955c 8.949-5.515, 19.28-20.464, 13.499-31.227
		c 13.088,8.635, 27.536,12.069, 41.931,4.224c 13.045-7.115, 17.195-21.803, 17.173-35.84c 13.296,10.032, 25.152,23.963, 35.104,37.216
		c 14.491,19.28, 25.824,44.181, 30.688,67.877C 477.632,136.016, 453.259,203.803, 412.885,262.107z" horiz-adv-x="533.333"  />
<glyph unicode="&#xe004;" d="M 444.624,467.637L 504.379,406.384L 504.379-18.213L 383.307-18.213L 383.307,84.811L 348.901,84.811L 348.901,136.773L 382.501,136.773L 382.501,241.285L 349.056,241.285L 349.056,292.859L 383.099,292.859L 383.099,406.384 	zM 270.656,467.637L 330.405,406.384L 330.405-18.213L 209.365-18.213L 209.365,84.811L 174.928,84.811L 174.928,136.773L 208.528,136.773L 208.528,241.285L 175.115,241.285L 175.115,292.859L 209.125,292.859L 209.125,406.384 
			zM 96.992,467.637L 156.72,406.384L 156.715-18.213L 35.675-18.213L 35.44,406.384 	z" horiz-adv-x="533.333"  />
<glyph unicode="&#xe005;" d="M 52.939,127.264c-18.667,0-35.541,0-54.187,0
		c 19.509,68.011, 38.629,134.752, 57.776,201.52c-1.589,0.651-3.152,1.301-4.741,1.952c-1.995-3.6-4.704-7.003-5.877-10.843
		c-10.373-34.091-20.576-68.24-30.576-102.453c-2.768-9.451-7.877-16.235-17.979-17.355c-12.384-1.387-22.752,10.981-18.816,24.507
		c 13.083,44.901, 25.872,89.963, 41.493,133.995c 7.877,22.139, 27.259,33.493, 51.643,33.643c 19.184,0.123, 38.389,0.144, 57.568-0.005
		c 25.435-0.197, 47.227-14.8, 55.083-39.131c 13.445-41.536, 25.877-83.387, 38.347-125.221c 3.931-13.179-1.445-23.925-12.347-27.152
		c-10.752-3.205-19.477,2.997-23.84,17.461c-10.005,33.275-19.728,66.635-29.824,99.861c-1.392,4.56-4.261,8.699-6.448,13.024
		c-1.877-0.789-3.739-1.547-5.616-2.336c 19.248-66.352, 38.491-132.736, 58.219-200.731c-18.293,0-35.349,0-54.368,0c0-6.123,0-10.827,0-15.525
		c0-44.187-0.048-88.368, 0.016-132.549c 0.011-11.861-3.579-21.275-16.363-24.133c-14.693-3.285-25.477,6.123-25.552,22.624
		c-0.208,45.957-0.085,91.941-0.064,137.899c0,6.453, 0.869,13.531-11.179,9.893c0-4.219,0-8.981,0-13.749
		c0-43.739, 0.064-87.477-0.053-131.216c-0.021-16.965-6.939-25.547-20.267-25.899c-14.133-0.373-21.957,8.341-22.032,25.696
		c-0.197,43.291-0.069,86.587-0.069,129.883C 52.939,115.765, 52.939,120.619, 52.939,127.264zM 454.784,181.152c-0.293-5.024-0.859-10.021-0.859-15.045
		c-0.064-60.267,0-120.533-0.075-180.805c-0.011-16.8-7.595-26.677-21.712-28.976s-26.987,7.093-28.747,21.344
		c-0.597,4.843-0.389,9.803-0.389,14.709c-0.011,105.344, 0.011,210.715-0.096,316.064c0,4.885-1.237,9.744-1.909,14.629
		c-1.68-0.123-3.344-0.219-5.024-0.315c-0.347-4.517-0.965-9.008-0.965-13.525c-0.085-33.936, 0.021-67.867-0.149-101.797
		c-0.021-5.264, 0.512-12.123-2.4-15.424c-4.48-5.099-11.84-10.768-17.765-10.544c-5.851,0.213-12.64,6.528-16.752,11.915
		c-2.779,3.643-2.181,10.261-2.192,15.568c-0.155,39.285, 0.432,78.576-0.229,117.845c-0.715,42.651, 27.008,68.475, 66.203,65.765
		c 26.672-1.835, 53.541-0.235, 80.331-0.379c 31.872-0.155, 56.416-23.243, 56.96-55.221c 0.747-45.072, 0.357-90.181, 0.155-135.259
		c-0.064-14.176-6.501-20.981-18.64-21.12c-12.448-0.139-19.141,7.232-19.184,21.968c-0.139,35.264-0.053,70.523-0.053,105.792
		c0,4.683,0,9.36,0,14.037c-1.531,0.309-3.051,0.64-4.56,0.949c-1.152-3.163-3.2-6.299-3.296-9.509
		c-0.421-11.579-0.165-23.2-0.165-34.811c0-96.427, 0.053-192.864-0.064-289.291c-0.011-5.717-0.219-11.712-1.845-17.115
		c-3.568-11.685-15.227-18.261-27.355-16.389c-13.088,2-21.52,10.768-21.803,24.747c-0.533,25.888-0.24,51.781-0.272,77.675
		c-0.011,36.592, 0.064,73.211-0.075,109.808c-0.011,4.379-1.072,8.752-1.616,13.104C 458.4,181.456, 456.576,181.307, 454.784,181.152zM 258.32,486.448c 5.291,0, 9.717,0, 14.117,0c 11.056,0, 22.144,0, 34.091,0
		c0-176.144,0-351.221,0-527.237c-15.605,0-31.456,0-48.208,0C 258.32,134.139, 258.32,309.227, 258.32,486.448zM 414.139,448.667c 0.283,24.779, 19.403,43.019, 44.773,42.661
		c 23.84-0.315, 42.885-19.797, 42.795-43.691c-0.096-24.432-19.771-43.6-44.491-43.365C 432.181,404.533, 413.888,423.403, 414.139,448.667zM 102.549,491.349c 24.016-0.373, 42.507-19.531, 42.347-43.872
		c-0.155-24.816-19.408-43.536-44.4-43.179c-24.885,0.357-43.515,19.659-43.029,44.603C 57.92,473.499, 77.307,491.744, 102.549,491.349z" horiz-adv-x="533.333"  />
<glyph unicode="&#xe006;" d="M 199.285,397.595c 26.384,0, 47.552,21.445, 47.552,47.451c0,26.315-21.168,47.456-47.552,47.456
		c-26.171,0-47.451-21.168-47.451-47.456C 151.835,419.035, 173.136,397.595, 199.285,397.595M 430.24,44.267c 7.611-12.267, 24.955-17.355, 38.064-9.461c 13.045,7.819, 16.992,24.229, 9.531,37.925
		L 396.901,212.475c-5.008,8.384-13.829,13.179-22.939,13.477L 255.211,225.931 l-1.141,35.845l 86.24,0 c 11.755,0.656, 21.44,9.6, 21.44,21.659
		c0,11.893-9.381,21.141-21.44,21.584L 251.563,305.019 l-3.088,40.805c-1.637,24.885-23.083,44.523-48.32,43.104c-25.307-1.365-44.528-23.232-43.237-48.464
		l 8.24-144.048c 2.085-25.243, 23.227-43.312, 48.32-43.173l 153.861,0 L 430.24,44.267zM 229.835-9.867c-77.861,0-141.029,62.955-141.029,140.971c0,42.715, 19.355,80.784, 49.472,106.752
		l-2.507,44.080c-50.405-31.563-84.331-86.976-84.331-150.832c0-98.453, 79.803-178.4, 178.395-178.4c 72.549,0, 134.571,43.664, 162.48,105.893
		l-25.104,43.376C 353.797,38.251, 297.653-9.867, 229.835-9.867" horiz-adv-x="533.333"  />
<glyph unicode="&#xe007;" d="M 160.192,233.664l-55.136-43.733l-70.496-54.027c-20.139-15.776-36.613,3.243-36.613,3.243
		c-15.637,20.517, 2.341,33.984, 2.341,33.984l 87.877,68.725c0,0, 9.6,10.016, 34.864,2.816L 160.192,233.664M 263.152,321.445c-27.605,0-49.84,22.24-49.84,49.835c0,27.605, 22.235,50.048, 49.84,50.048
		c 27.605,0, 49.979-22.443, 49.979-50.048C 313.147,343.707, 290.757,321.445, 263.152,321.445M 139.6,48.139c0,14.763-11.936,26.704-26.704,26.704c-14.763,0-26.704-11.941-26.704-26.704
		s 11.941-26.704, 26.704-26.704C 127.659,21.44, 139.6,33.381, 139.6,48.139 M 386.869,48.139c0,14.763-11.936,26.704-26.709,26.704
		c-14.688,0-26.624-11.941-26.624-26.704s 11.936-26.704, 26.624-26.704C 374.933,21.44, 386.869,33.381, 386.869,48.139 M 80.272,100.661
		c-3.424,9.461-4.885,19.787-2.549,30.219c 2.827,11.659, 9.216,21.568, 17.728,28.757L 464.939,453.744c 9.003,6.597, 20.027,10.645, 32.069,10.645
		c 29.445,0, 53.189-23.733, 53.189-53.253c0-17.173-7.813-32.416-20.245-42.229c-4.395-3.845-10.848-3.355-14.549,1.088
		c-3.915,4.4-3.285,11.205, 1.152,14.901c 7.963,5.835, 12.987,15.456, 12.987,26.24c0,17.973-14.624,32.597-32.533,32.597
		c-7.616,0-14.352-2.544-19.861-6.667L 369.771,351.525l-56.155-162.56l 34.064-80.939c 3.973,0.901, 8.235,1.643, 12.485,1.643
		c 34.064,0, 61.6-27.6, 61.6-61.499c0-34.128-27.536-61.499-61.6-61.499c-33.915,0-61.424,27.397-61.424,61.499
		c0,21.957, 11.477,41.323, 28.901,52.032l-24.507,58.635l-2.064-6.245c-7.467-23.008-32.32-35.563-55.317-27.952l-114.021,37.627l-22.235-17.771
		c-5.275-4.325-9.275-10.507-11.056-17.723c-1.504-6.661-0.421-13.051, 1.781-18.741c 3.973,0.763, 8.373,1.643, 12.699,1.643
		c 33.92,0, 61.456-27.6, 61.456-61.499c0-34.128-27.531-61.499-61.456-61.499s-61.595,27.397-61.595,61.499
		C 51.301,70.395, 62.565,89.877, 80.272,100.661" horiz-adv-x="533.333"  />
<glyph unicode="&#xe008;" d="M 362.741,408.603c 24.459-0.016, 44.389,19.893, 44.453,44.453c-0.064,24.587-19.968,44.517-44.453,44.459
		c-24.672,0.064-44.597-19.872-44.693-44.459C 318.144,428.491, 338.069,408.565, 362.741,408.603M 305.477,326.757l 0.272-339.632c0-33.909, 49.941-33.584, 49.931,0.8L 355.701,185.573 l 9.675,0 L 365.376-11.84 
		c 0.064-34.539, 50.603-35.419, 50.725-1.040L 416.080,328.325 l 8.635,0 l0-121.835 c 0.064-29.285, 39.749-29.285, 39.749-0.528L 464.464,339.035 
		c0,35.936-26.677,57.013-54.901,57.003L 330.592,396.037 c-18.848,0.011-32.469-7.413-43.925-23.781l-39.995-58.304l-69.541,0 c-27.851,0-26.283-39.579-0.528-39.488
		l 80.277,0 c 6.133-0.091, 13.755,2.235, 18.048,8.901L 305.477,326.757M 142.347,118.635l 32.683,0 l0,32.421 L 142.347,151.056 L 142.347,118.635 zM 192.544,190.805l-23.541,23.541l-23.781-23.541l 23.781-23.781L 192.544,190.805M 170.571,235.509l-23.781,23.515l-23.781-23.515l 23.781-23.787L 170.571,235.509M 219.728-37.984l 42.096,224.597l-31.621,0 l-37.125-193.216l-54.901,0 l-36.085,193.216l-31.888,0 l 41.563-224.597
		L 219.728-37.984 " horiz-adv-x="533.333"  />
<glyph unicode="&#xe009;" d="M 266.112,479.205c-139.995,0-253.872-113.877-253.872-253.867s 113.877-253.867, 253.872-253.867
	c 139.989,0, 253.867,113.877, 253.867,253.867S 406.101,479.205, 266.112,479.205z M 361.52,135.899c-4.64-10.491-11.221-19.552-19.739-27.163
	s-18.795-13.701-30.827-18.267s-25.333-7.445-39.941-8.683l-4.805-48.853c-0.144-1.211-0.501-2.283-1.019-3.189
	c-0.528-0.901-1.525-1.659-2.976-2.277s-3.424-1.099-5.92-1.504c-2.523-0.379-5.664-0.565-9.472-0.565c-4.875,0-8.779,0.235-11.749,0.688
	c-2.971,0.459-5.28,1.099-6.971,1.947c-1.664,0.832-2.784,1.952-3.307,3.307c-0.523,1.381-0.64,2.901-0.331,4.565l 4.805,46.341
	c-6.539,0.901-12.704,2.091-18.485,3.541c-5.781,1.451-11.040,3.045-15.749,4.805s-8.779,3.541-12.203,5.349
	c-3.429,1.84-6.021,3.616-7.76,5.376s-2.997,4.331-3.76,7.76c-0.763,3.424-1.141,8.485-1.141,15.173
	c0,5.189, 0.144,9.445, 0.453,12.8c 0.309,3.349, 0.832,5.92, 1.595,7.755c 0.763,1.835, 1.712,3.093, 2.848,3.765
	c 1.147,0.683, 2.48,1.019, 4,1.019c 1.973,0, 4.869-1.147, 8.677-3.424c 3.808-2.283, 8.683-4.811, 14.603-7.541
	c 5.947-2.741, 13.136-5.259, 21.579-7.541c 8.448-2.288, 18.363-3.429, 29.781-3.429c 17.819,0, 31.045,3.307, 39.728,9.915
	c 8.683,6.613, 13.008,15.413, 13.008,26.384c0,7.296-1.856,13.312-5.584,18.027c-3.739,4.709-8.715,8.875-14.96,12.443
	c-6.235,3.563-13.28,6.773-21.125,9.584c-7.851,2.805-15.867,5.829-24.069,9.013c-8.208,3.189-16.245,6.923-24.075,11.179
	s-14.869,9.515-21.12,15.749c-6.235,6.229-11.227,13.819-14.96,22.715c-3.739,8.896-5.589,19.669-5.589,32.304
	c0,11.419, 1.899,21.813, 5.707,31.157c 3.808,9.349, 9.275,17.531, 16.437,24.549c 7.163,6.992, 15.936,12.677, 26.357,17.008
	c 10.416,4.331, 22.267,7.253, 35.488,8.779l 4.565,45.883c 0.144,1.211, 0.501,2.235, 1.024,3.067s 1.52,1.595, 2.971,2.283
	c 1.456,0.688, 3.381,1.163, 5.829,1.477c 2.432,0.309, 5.637,0.453, 9.584,0.453c 4.715,0, 8.64-0.235, 11.76-0.688
	c 3.109-0.453, 5.515-1.099, 7.184-1.947c 1.669-0.832, 2.741-1.952, 3.189-3.307s 0.683-2.901, 0.683-4.565l-4.565-43.147
	c 4.261-0.619, 8.757-1.456, 13.472-2.523c 4.704-1.067, 9.136-2.331, 13.216-3.76c 4.117-1.451, 7.856-2.971, 11.184-4.565
	c 3.36-1.595, 5.669-3.045, 6.971-4.331c 1.28-1.285, 2.288-2.592, 2.971-3.877c 0.693-1.285, 1.216-2.901, 1.595-4.805s 0.64-4.187, 0.811-6.848
	c 0.139-2.667, 0.208-5.755, 0.208-9.253c0-4.709-0.117-8.587-0.325-11.632c-0.24-3.045-0.651-5.349-1.259-6.971
	c-0.619-1.595-1.312-2.667-2.048-3.189c-0.768-0.523-1.669-0.805-2.741-0.805c-1.973,0-4.869,0.997-8.683,2.971
	c-3.803,1.973-8.485,4.117-14.027,6.4c-5.573,2.283-11.947,4.4-19.173,6.395c-7.232,1.973-15.184,2.976-23.867,2.976
	c-7.92,0-14.677-0.763-20.315-2.283c-5.632-1.525-10.203-3.664-13.696-6.4c-3.504-2.736-6.091-6.021-7.76-9.824
	c-1.664-3.808-2.523-7.995-2.523-12.56c0-7.163, 1.904-13.157, 5.712-18.032c 3.803-4.875, 8.875-9.061, 15.179-12.56
	c 6.299-3.499, 13.461-6.709, 21.456-9.589c 7.989-2.901, 16.128-5.947, 24.421-9.131c 8.304-3.189, 16.443-6.875, 24.432-11.061
	s 15.099-9.349, 21.333-15.531c 6.235-6.16, 11.253-13.627, 15.056-22.384c 3.813-8.757, 5.712-19.285, 5.712-31.616
	C 368.496,158.192, 366.187,146.395, 361.52,135.899z" horiz-adv-x="533.333"  />
<glyph unicode="&#xe00a;" d="M 228.795,307.072A45.947,45.947 180 1 1 320.667,307.072A45.947,45.947 180 1 1 228.795,307.072zM 451.968,483.072L 86.272,483.072 L 4.507-29.739l 41.424,0 l 75.019,465.451L 147.733,435.733 l0-180.491 c-7.893,0.309-5.605,0.149-7.659-0.608
		c-6.523-2.448-9.088-9.691-6.645-16.219C 133.648,237.787, 139.84,230.368, 147.733,222.176L 147.733,96.491 l-15.787,0 l0-31.552 l 52.816,0 c 0.779,15.787, 2.912,23.659, 6.987,31.552L 171.392,96.491 L 171.392,206.208 
		c 7.893-3.84, 18.357-6.571, 29.632-6.864C 222.864,198.763, 234.517,210.917, 234.517,210.917l0-78.213 c-7.893-5.616-19.803-12.928-24.693-19.616
		c-28.112-38.309-11.339-97.723-9.275-104.368c 2.517-8.021, 9.504-13.125, 17.504-13.125c 1.851,0, 3.547,0.272, 5.445,0.869
		c 9.883,3.109, 15.275,13.643, 12.133,23.531c-3.813,12.133-11.579,51.232, 2.848,70.869c 6.768,9.216, 18.357,13.701, 35.493,13.701
		c 17.259,0, 29.104-4.56, 36.203-13.979c 14.875-19.733, 8.368-57.952, 4.629-70.981c-2.896-9.952, 2.816-20.395, 12.768-23.291
		c 1.765-0.512, 3.504-0.741, 5.259-0.741c 8.112,0, 15.627,5.317, 18.043,13.515c 1.92,6.603, 18.891,65.787-9.744,103.968
		C 336.555,119.184, 329.179,125.765, 321.301,131.163L 321.301,210.848 c0,0, 13.845-11.243, 32.117-11.504c 8.629-0.133, 15.221,1.531, 23.115,4.139L 376.512,96.491 l-19.637,0 
		c 4.208-7.893, 6.464-15.787, 7.429-31.552L 415.957,64.939 l0,31.552 l-15.787,0 L 400.192,218.549 c 7.893,7.12, 10.091,13.643, 10.325,14.235c 2.373,6.571-0.528,13.781-7.099,16.144
		C 402.101,249.397, 400.192,249.584, 400.192,249.627L 400.192,435.733 l 16.784,0 l 73.088-465.451l 41.269,0 L 451.968,483.072z M 376.512,232.128c-7.893-3.6-14.933-6.923-23.76-7.179
		C 334.816,224.427, 316.053,246.4, 316.053,246.4l-86.709,0 c0,0-10.939-22.053-32.075-22.053c-10.192,0-17.984,5.061-25.877,10.416L 171.392,435.733 l 205.12,0 L 376.512,232.128 zM 273.963,96.693c-14.437,0-23.979-4.821-29.168-11.899C 241.259,80.011, 239.333,72.832, 238.464,64.939l 72.192,0 
		c-1.072,7.893-3.147,14.672-6.789,19.509C 298.389,91.749, 288.592,96.693, 273.963,96.693z" horiz-adv-x="533.333"  />
<glyph unicode="&#xe00b;" d="M 131.723,309.077c-16.411-24.571-26-54.091-26-85.781c0-26.747, 6.811-52.624, 19.813-75.675l 161.264,161.269
		C 244.704,308.965, 190.315,309.045, 131.723,309.077zM 48.325,310.416c-39.627,6.197-79.824,33.008-79.824,33.008s 43.504-56.091, 40.816-126.731
		c0-116.187-89.419-191.131-89.419-191.131s 52.885-14.549, 75.157-20.688c 30.779,38.613, 54.725,66.603, 77.755,86.725
		c-26.251,37.328-41.696,82.731-41.696,131.701C 31.093,254.133, 37.259,283.536, 48.325,310.416zM 390.795,307.307L 222.224,138.731c 59.675-0.373, 99.776-15.195, 132.363-38.56
		c 37.067,28.347, 61.029,72.981, 61.029,123.131C 415.616,253.541, 407.077,282.277, 390.795,307.307zM 409.291,48.491c 13.659-15.456, 27.323-32.053, 42.432-49.125c 29.312,17.397, 52.507,34.416, 52.507,34.416
		s-23.168,32.085-47.979,69.424C 443.541,82.571, 427.643,64.133, 409.291,48.491zM 502.4,375.563c-11.056,26.683-24.4,77.36-24.4,77.36s-11.568-49.899-37.093-87.643
		c 24.101-30.523, 40.661-67.253, 46.763-107.387c 8.651,1.989, 17.989,2.496, 27.909,0.587c 58.757-11.333, 78.128-17.051, 78.128-17.051l 17.835,81.68
		C 611.52,323.083, 518.373,337.003, 502.4,375.563zM 476.112,223.296c0,118.784-96.645,215.424-215.429,215.424c-118.784,0-215.424-96.64-215.424-215.424
		c0-118.784, 96.64-215.429, 215.424-215.429C 379.467,7.867, 476.112,104.512, 476.112,223.296z M 91.579,223.296c0,93.253, 75.851,169.099, 169.104,169.099
		c 36.576,0, 70.459-11.701, 98.149-31.536L 123.115,125.147C 103.28,152.837, 91.579,186.72, 91.579,223.296z M 260.683,54.192
		c-40,0-76.757,13.989-105.739,37.269l 237.568,237.573c 23.28-28.976, 37.269-65.76, 37.269-105.739C 429.781,130.064, 353.915,54.192, 260.683,54.192
		z" horiz-adv-x="533.333"  />
<glyph unicode="&#xe013;" d="M 256.208-32L 256.208,224.272 L 9.424,224.272 l0-0.208 L 0.16,224.064 L0,224.272L 512,480L 256.208-32z"  />
<glyph unicode="&#xe01b;" d="M0,384L 160,448L 160,64L0,0 zM 352,384 L 352,0 L 192,53.333 L 192,437.333 ZM 512,448 L 512,64 L 384,12.8 L 384,396.8 Z"  />
<glyph unicode="&#xe01c;" d="M 255.008-32C 255.008-32, 96,192.992, 96,288.992C 96,478, 255.008,480, 255.008,480
	S 416,478, 416,290C 416,191.008, 255.008-32, 255.008-32z M 256,384c-35.344,0-64-28.656-64-64s 28.656-64, 64-64s 64,28.656, 64,64S 291.344,384, 256,384z"  />
<glyph unicode="&#xe019;" d="M 160,448 L 32,448 L 32,320 L 160,320 L 160,448 Z M 192,480 L 192,480 L 192,288 L 0,288 L 0,480 L 192,480 ZM 64,416L 128,416L 128,352L 64,352zM 480,448 L 352,448 L 352,320 L 480,320 L 480,448 Z M 512,480 L 512,480 L 512,288 L 320,288 L 320,480 L 512,480 ZM 384,416L 448,416L 448,352L 384,352zM 160,128 L 32,128 L 32,0 L 160,0 L 160,128 Z M 192,160 L 192,160 L 192-32 L 0-32 L 0,160 L 192,160 ZM 64,96L 128,96L 128,32L 64,32zM 224,480L 256,480L 256,448L 224,448zM 256,448L 288,448L 288,416L 256,416zM 224,416L 256,416L 256,384L 224,384zM 256,384L 288,384L 288,352L 256,352zM 224,352L 256,352L 256,320L 224,320zM 256,320L 288,320L 288,288L 256,288zM 224,288L 256,288L 256,256L 224,256zM 224,224L 256,224L 256,192L 224,192zM 256,192L 288,192L 288,160L 256,160zM 224,160L 256,160L 256,128L 224,128zM 256,128L 288,128L 288,96L 256,96zM 224,96L 256,96L 256,64L 224,64zM 256,64L 288,64L 288,32L 256,32zM 224,32L 256,32L 256,0L 224,0zM 256,0L 288,0L 288-32L 256-32zM 480,224L 512,224L 512,192L 480,192zM 32,224L 64,224L 64,192L 32,192zM 64,256L 96,256L 96,224L 64,224zM0,256L 32,256L 32,224L0,224zM 128,256L 160,256L 160,224L 128,224zM 160,224L 192,224L 192,192L 160,192zM 192,256L 224,256L 224,224L 192,224zM 288,224L 320,224L 320,192L 288,192zM 320,256L 352,256L 352,224L 320,224zM 352,224L 384,224L 384,192L 352,192zM 384,256L 416,256L 416,224L 384,224zM 416,224L 448,224L 448,192L 416,192zM 448,256L 480,256L 480,224L 448,224zM 480,160L 512,160L 512,128L 480,128zM 288,160L 320,160L 320,128L 288,128zM 320,192L 352,192L 352,160L 320,160zM 352,160L 384,160L 384,128L 352,128zM 416,160L 448,160L 448,128L 416,128zM 448,192L 480,192L 480,160L 448,160zM 480,96L 512,96L 512,64L 480,64zM 288,96L 320,96L 320,64L 288,64zM 320,128L 352,128L 352,96L 320,96zM 384,128L 416,128L 416,96L 384,96zM 416,96L 448,96L 448,64L 416,64zM 448,128L 480,128L 480,96L 448,96zM 480,32L 512,32L 512,0L 480,0zM 320,64L 352,64L 352,32L 320,32zM 352,32L 384,32L 384,0L 352,0zM 384,64L 416,64L 416,32L 384,32zM 416,32L 448,32L 448,0L 416,0zM 320,0L 352,0L 352-32L 320-32zM 384,0L 416,0L 416-32L 384-32zM 448,0L 480,0L 480-32L 448-32z"  />
<glyph unicode="&#xe018;" d="M 448,384 L 64,384 L 64,64 L 448,64 L 448,384 Z M 512,448 L 512,448 L 512,0 L 0,0 L 0,448 L 512,448 ZM 416,96 L 96,96 L 96,160 L 192,320 L 323.5,160 L 416,224 L 416,192 ZM 320,304A48,48 2700 1 1 416,304A48,48 2700 1 1 320,304z"  />
<glyph unicode="&#xe00c;" d="M 256,480C 114.624,480,0,365.376,0,224s 114.624-256, 256-256s 256,114.624, 256,256S 397.376,480, 256,480z M 216.32,105.872
		L 98.528,223.68l 45.248,45.248l 72.528-72.56l 153.872,153.872l 45.248-45.248L 216.32,105.872z"  />
<glyph unicode="&#xe00d;" d="M 256,480C 114.624,480,0,365.376,0,224s 114.624-256, 256-256s 256,114.624, 256,256S 397.376,480, 256,480z M 382.624,142.624
		l-45.248-45.248L 256,178.752l-81.376-81.376l-45.248,45.248L 210.752,224l-81.376,81.376l 45.248,45.248L 256,269.248l 81.376,81.376l 45.248-45.248
		L 301.248,224L 382.624,142.624z"  />
<glyph unicode="&#xe00e;" d="M 256,480C 114.624,480,0,365.376,0,224s 114.624-256, 256-256s 256,114.624, 256,256S 397.376,480, 256,480z M 384,192l-96,0 l0-96 l-64,0 l0,96 L 128,192 l0,64 l 96,0 
		L 224,352 l 64,0 l0-96 l 96,0 L 384,192 z"  />
<glyph unicode="&#xe00f;" d="M 256,480C 114.624,480,0,365.376,0,224s 114.624-256, 256-256s 256,114.624, 256,256S 397.376,480, 256,480z M 384,192L 128,192 l0,64 l 256,0 L 384,192 z"  />
<glyph unicode="&#xe010;" d="M 256,480C 114.615,480,0,365.385,0,224s 114.615-256, 256-256s 256,114.615, 256,256S 397.385,480, 256,480z M 224,384l 64,0 l0-64 l-64,0 L 224,384 z
	 M 320,64L 192,64 l0,32 l 32,0 L 224,224 l-32,0 l0,32 l 96,0 l0-160 l 32,0 L 320,64 z"  />
<glyph unicode="&#xe011;" d="M 512,112M 368,480L 144,480 L0,336l0-224 l 144-144l 224,0 l 144,144L 512,336 L 368,480z M 288,64l-64,0 l0,64 l 64,0 L 288,64 z M 288,192l-64,0 L 224,384 l 64,0 L 288,192 z"  />
<glyph unicode="&#xe01a;" d="M 363.365,417.728L 163.397,496l-171.232-68.155l 0.699-397.141c 7.328,2.672, 14.368,5.456, 20.869,8.485l 13.013-27.984
	c-10.368-4.821-21.749-9.173-33.84-13.083l 0.085-50.992L 162.763,24.256l 205.141-78.56l 176.224,79.808l 0.293,472.997L 363.365,417.728z M 75.488,42.293
	c-1.989-1.776-4.021-3.472-6.139-5.173l-19.296,24.069c 1.707,1.365, 3.365,2.757, 4.971,4.192c 11.248,9.957, 21.349,22.608, 30.891,38.651
	l 26.528-15.76C 101.221,69.44, 89.131,54.389, 75.488,42.293z M 150.672,177.595c-3.995-12.923-7.749-25.131-12.245-35.856
	c-1.44-3.435-2.901-6.901-4.411-10.357l-28.309,12.309c 1.451,3.323, 2.848,6.64, 4.229,9.952c 3.931,9.349, 7.472,20.864, 11.243,33.040
	c 1.403,4.56, 2.837,9.184, 4.336,13.819l 29.381-9.413C 153.44,186.576, 152.053,182.037, 150.672,177.595z M 187.173,250.869
	c-5.861-4.203-11.147-10.64-16.187-19.696l-26.965,15.003c 7.312,13.125, 15.552,22.869, 25.205,29.781c 9.067,6.491, 18.939,11.733, 29.349,15.563
	l 10.704-28.949C 201.413,259.701, 194,255.76, 187.173,250.869z M 249.755,299.621c 20.955-0.549, 43.552-5.445, 65.323-14.149l-11.456-28.661
	c-18.437,7.376-37.328,11.488-54.672,11.947L 249.755,299.621z M 484.731,217.056l-38.059-38.059l-56.608,56.64L 332.976,178.56l-39.056,39.099l 57.067,57.067
	l-56.608,56.64l 38.027,38.064l 56.608-56.64l 57.237,57.211l 39.056-39.061l-57.205-57.221L 484.731,217.056z" horiz-adv-x="533.333"  />
<glyph unicode="&#x20;" horiz-adv-x="256" />
</font>
</defs>
</svg>
